<svg xmlns="http://www.w3.org/2000/svg" viewBox="0 0 512 512" width="512" height="512">
  <defs>
    <style>
      .gear { fill: #e0e0e0; }
      .face { fill: #0d0d0d; }
    </style>
  </defs>
  <rect width="512" height="512" fill="#0d0d0d" rx="32"/>
  <g transform="translate(256, 256)">
    <path class="gear" d="M -30,-185 L 30,-185 L 35,-155 Q 65,-150 90,-135 L 110,-160 L 155,-110 L 135,-90 Q 150,-65 155,-35 L 185,-30 L 185,30 L 155,35 Q 150,65 135,90 L 155,110 L 110,155 L 90,135 Q 65,150 35,155 L 30,185 L -30,185 L -35,155 Q -65,150 -90,135 L -110,160 L -155,110 L -135,90 Q -150,65 -155,35 L -185,30 L -185,-30 L -155,-35 Q -150,-65 -135,-90 L -155,-110 L -110,-155 L -90,-135 Q -65,-150 -35,-155 Z"/>
    <circle class="face" cx="0" cy="0" r="85"/>
    <circle cx="0" cy="0" r="80" fill="none" stroke="#e0e0e0" stroke-width="6" opacity="0.3"/>
    <!-- Eyes (closed — horizontal lines) -->
    <line x1="-40" y1="-15" x2="-16" y2="-15" stroke="#e0e0e0" stroke-width="5" stroke-linecap="round"/>
    <line x1="16" y1="-15" x2="40" y2="-15" stroke="#e0e0e0" stroke-width="5" stroke-linecap="round"/>
    <!-- Mouth (small o — snoring) -->
    <circle cx="0" cy="28" r="8" fill="none" stroke="#e0e0e0" stroke-width="4"/>
    <!-- Zzz -->
    <text x="45" y="-35" fill="#e0e0e0" font-family="sans-serif" font-size="24" font-weight="700" opacity="0.5">z</text>
    <text x="58" y="-55" fill="#e0e0e0" font-family="sans-serif" font-size="18" font-weight="700" opacity="0.35">z</text>
  </g>
</svg>
